<?xml version="1.0" encoding="utf-8"?>
<svg xmlns="http://www.w3.org/2000/svg" viewBox="0 0 64 64" fill="#7f7f7f"><path d="M 32 3 C 16.257173 3 3.4520472 15.54723 3.0195312 31.185547 C 3.0193988 31.186822 3.0196627 31.188178 3.0195312 31.189453 C 3.0095312 31.343453 3 31.506203 3 31.658203 L 3 31.720703 C 3.0002928 31.743662 3.005224 31.766139 3.0058594 31.789062 C 3.0053534 31.8597 3 31.929244 3 32 C 3 48.016 15.984 61 32 61 C 48.016 61 61 48.016 61 32 C 61 31.929244 60.994647 31.8597 60.994141 31.789062 C 60.994776 31.766153 60.999707 31.743647 61 31.720703 L 61 31.660156 C 61 31.507156 60.990469 31.344406 60.980469 31.191406 C 60.980337 31.19013 60.980601 31.188776 60.980469 31.1875 C 60.548965 15.548276 47.743482 3 32 3 z M 32 5 C 45.184064 4.9909263 56.227467 14.451085 58.5625 27.050781 C 55.480523 24.300897 49.633604 22.156257 41.980469 21.113281 C 41.972189 21.112069 41.963375 21.110569 41.955078 21.109375 C 41.585217 15.929771 37.262412 11.826172 31.990234 11.826172 C 26.713466 11.826172 22.390618 15.937055 22.027344 21.123047 C 14.371247 22.165678 8.5206902 24.29696 5.4375 27.046875 C 7.7740415 14.449067 18.817255 4.9909272 32 5 z M 31.990234 13.826172 C 36.401234 13.826172 39.990234 17.415172 39.990234 21.826172 C 39.990234 26.237172 36.401234 29.826172 31.990234 29.826172 C 27.579234 29.826172 23.990234 26.237172 23.990234 21.826172 C 23.990234 17.415172 27.579234 13.826172 31.990234 13.826172 z M 31.986328 16.826172 C 29.226328 16.826172 26.986328 19.066172 26.986328 21.826172 C 26.986328 24.586172 29.226328 26.826172 31.986328 26.826172 C 34.756328 26.826172 36.986328 24.586172 36.986328 21.826172 C 36.986328 19.066172 34.756328 16.826172 31.986328 16.826172 z M 31.986328 18.826172 C 33.646328 18.826172 34.986328 20.166172 34.986328 21.826172 C 34.986328 23.486172 33.646328 24.826172 31.986328 24.826172 C 30.336328 24.826172 28.986328 23.486172 28.986328 21.826172 C 28.986328 20.166172 30.336328 18.826172 31.986328 18.826172 z M 22.089844 23.15625 C 22.743676 28.042209 26.928226 31.826172 31.990234 31.826172 C 37.051579 31.826172 41.237902 28.043231 41.892578 23.158203 C 50.920076 24.423834 57.6225 27.420876 58.810547 30.642578 C 58.834256 30.703856 58.844168 30.764833 58.863281 30.826172 L 56.996094 30.826172 C 56.443094 30.826172 55.996094 31.274172 55.996094 31.826172 C 55.996094 32.378172 56.443094 32.826172 56.996094 32.826172 L 58.761719 32.826172 C 57.353847 36.405851 49.640009 39.115852 40.869141 40.244141 C 40.386141 40.306141 40.011094 40.707125 39.996094 41.203125 C 39.966094 42.196125 39.719812 43.189781 39.257812 44.175781 C 37.839813 47.199781 34.943297 49.272859 31.654297 49.130859 C 27.729297 48.961859 24.5405 45.918672 24.0625 42.013672 C 24.0445 41.862672 24.031391 41.551328 24.025391 41.236328 C 24.015391 40.728328 23.641484 40.309094 23.146484 40.246094 C 14.368661 39.118658 6.6459977 36.407466 5.2382812 32.826172 L 14.996094 32.826172 C 15.549094 32.826172 15.996094 32.378172 15.996094 31.826172 C 15.996094 31.274172 15.549094 30.826172 14.996094 30.826172 L 5.1367188 30.826172 C 5.1559223 30.764451 5.1655968 30.702285 5.1894531 30.640625 C 6.3775839 27.418694 13.071359 24.432639 22.089844 23.15625 z M 18.996094 30.826172 C 18.443094 30.826172 17.996094 31.274172 17.996094 31.826172 C 17.996094 32.378172 18.443094 32.826172 18.996094 32.826172 L 22.996094 32.826172 C 23.549094 32.826172 23.996094 32.378172 23.996094 31.826172 C 23.996094 31.274172 23.549094 30.826172 22.996094 30.826172 L 18.996094 30.826172 z M 40.996094 30.826172 C 40.443094 30.826172 39.996094 31.274172 39.996094 31.826172 C 39.996094 32.378172 40.443094 32.826172 40.996094 32.826172 L 42.996094 32.826172 C 43.549094 32.826172 43.996094 32.378172 43.996094 31.826172 C 43.996094 31.274172 43.549094 30.826172 42.996094 30.826172 L 40.996094 30.826172 z M 46.996094 30.826172 C 46.443094 30.826172 45.996094 31.274172 45.996094 31.826172 C 45.996094 32.378172 46.443094 32.826172 46.996094 32.826172 L 52.996094 32.826172 C 53.549094 32.826172 53.996094 32.378172 53.996094 31.826172 C 53.996094 31.274172 53.549094 30.826172 52.996094 30.826172 L 46.996094 30.826172 z M 58.701172 36.095703 C 56.716639 49.118802 45.479781 59.009277 32 59 C 18.524282 59.009274 7.2902948 49.124706 5.3007812 36.107422 C 5.3042536 36.110603 5.3070672 36.114008 5.3105469 36.117188 C 8.4305469 38.957187 14.489609 41.165125 22.099609 42.203125 C 22.759609 47.161125 26.940234 51 31.990234 51 C 37.040234 51 41.220625 47.162078 41.890625 42.205078 C 49.500625 41.167078 55.569453 38.957422 58.689453 36.107422 C 58.693644 36.103621 58.696991 36.099506 58.701172 36.095703 z M 13.455078 43.101562 C 13.327453 43.125219 13.202641 43.174 13.087891 43.25 L 11.417969 44.351562 C 10.956969 44.655563 10.830766 45.277281 11.134766 45.738281 C 11.326766 46.029281 11.645703 46.1875 11.970703 46.1875 C 12.159703 46.1875 12.350531 46.133484 12.519531 46.021484 L 14.189453 44.919922 C 14.650453 44.615922 14.776656 43.994203 14.472656 43.533203 C 14.243906 43.188203 13.837953 43.030594 13.455078 43.101562 z M 16.705078 46.792969 C 16.449203 46.797094 16.194453 46.899156 16.001953 47.097656 L 14.611328 48.533203 C 14.227328 48.930203 14.237766 49.563266 14.634766 49.947266 C 14.828766 50.135266 15.077125 50.228516 15.328125 50.228516 C 15.590125 50.228516 15.852828 50.127781 16.048828 49.925781 L 17.439453 48.488281 C 17.823453 48.091281 17.813016 47.458219 17.416016 47.074219 C 17.218016 46.882219 16.960953 46.788844 16.705078 46.792969 z M 20.685547 49.75 C 20.300422 49.691359 19.899141 49.863547 19.681641 50.216797 L 18.636719 51.919922 C 18.347719 52.390922 18.493844 53.005922 18.964844 53.294922 C 19.127844 53.395922 19.307328 53.443359 19.486328 53.443359 C 19.822328 53.443359 20.151797 53.273797 20.341797 52.966797 L 21.386719 51.261719 C 21.675719 50.790719 21.529594 50.175719 21.058594 49.886719 C 20.941094 49.814219 20.813922 49.769547 20.685547 49.75 z M 24.820312 51.796875 C 24.431484 51.824016 24.078359 52.081156 23.943359 52.472656 L 23.294922 54.363281 C 23.115922 54.885281 23.395969 55.455766 23.917969 55.634766 C 24.024969 55.671766 24.133234 55.689453 24.240234 55.689453 C 24.656234 55.689453 25.0445 55.427719 25.1875 55.011719 L 25.835938 53.119141 C 26.014937 52.597141 25.736844 52.028609 25.214844 51.849609 C 25.084094 51.804359 24.949922 51.787828 24.820312 51.796875 z M 29.699219 52.867188 C 29.138219 52.808188 28.656703 53.202953 28.595703 53.751953 L 28.376953 55.740234 C 28.317953 56.289234 28.712719 56.78375 29.261719 56.84375 C 29.298719 56.84775 29.335094 56.849609 29.371094 56.849609 C 29.875094 56.849609 30.308234 56.469031 30.365234 55.957031 L 30.583984 53.970703 C 30.643984 53.421703 30.248219 52.927188 29.699219 52.867188 z" fill="#7f7f7f"/></svg>
