<?xml version="1.0" encoding="utf-8"?>
<svg xmlns="http://www.w3.org/2000/svg" viewBox="0 0 26 26" fill="#7f7f7f"><path d="M 5 1 C 3.90625 1 3 1.90625 3 3 L 3 10 C 3 11.09375 3.90625 12 5 12 L 5 13 L 3 13 C 1.34375 13 0 15.6875 0 19 C 0 22.3125 1.34375 25 3 25 L 20 25 C 20.550781 25 21 24.550781 21 24 L 21 23 L 22 23 C 24.210938 23 26 21.210938 26 19 C 26 16.789063 24.210938 15 22 15 L 21 15 L 21 14 C 21 13.449219 20.550781 13 20 13 L 19 13 L 19 12 C 20.09375 12 21 11.09375 21 10 L 21 3 C 21 1.90625 20.09375 1 19 1 Z M 5 3 L 19 3 L 19 10 L 5 10 Z M 7 12 L 17 12 L 17 13 L 7 13 Z M 4 16 L 6 16 L 6 18 L 8 18 L 8 20 L 6 20 L 6 22 L 4 22 L 4 20 L 2 20 L 2 18 L 4 18 Z M 22 17 C 23.105469 17 24 17.894531 24 19 C 24 20.105469 23.105469 21 22 21 C 20.894531 21 20 20.105469 20 19 C 20 17.894531 20.894531 17 22 17 Z" fill="#7f7f7f"/></svg>
