<svg xmlns="http://www.w3.org/2000/svg" viewBox="0 0 48 48"><path fill="#e4e8ea" d="M24,44c11,0,20-9,20-20H4C4,35,13,44,24,44z"/><path fill="#cfd8dc" d="M24,44c11,0,20-9,20-20c0,0-0.2,16-20,16S4,24,4,24C4,35,13,44,24,44z"/><path fill="#d500f9" d="M24,4C13,4,4,13,4,24h40C44,13,35,4,24,4z"/><path fill="#37474f" d="M4,24c0,0.3,0,0.7,0.1,1h39.9c0-0.3,0.1-0.7,0.1-1s0-0.7-0.1-1H4.1C4,23.3,4,23.7,4,24z"/><path fill="#fff" d="M24,29c-2.8,0-5-2.2-5-5s2.2-5,5-5s5,2.2,5,5S26.8,29,24,29z"/><path fill="#37474f" d="M24,20c2.2,0,4,1.8,4,4s-1.8,4-4,4s-4-1.8-4-4S21.8,20,24,20 M24,18c-3.3,0-6,2.7-6,6s2.7,6,6,6 c3.3,0,6-2.7,6-6S27.3,18,24,18z"/><path fill="#37474f" d="M26 24c0 1.1-.9 2-2 2s-2-.9-2-2 .9-2 2-2S26 22.9 26 24zM24 16c-.6 0-1-.4-1-1v-3h-2v3c0 .6-.4 1-1 1s-1-.4-1-1v-4c0-.6.4-1 1-1h4c.6 0 1 .4 1 1v4C25 15.6 24.6 16 24 16z"/><path fill="#37474f" d="M28,16c-0.6,0-1-0.4-1-1v-3h-3c-0.6,0-1-0.4-1-1s0.4-1,1-1h4c0.6,0,1,0.4,1,1v4 C29,15.6,28.6,16,28,16z"/><path fill="#ec8fff" d="M42.5 16.3c-2-4.8-5.9-8.7-10.7-10.8-1.4 2.4-.7 6 2 8.7C36.4 16.9 40.1 17.7 42.5 16.3zM5.5 16.3c2-4.8 5.9-8.7 10.7-10.8 1.4 2.4.7 6-2 8.7C11.6 16.9 7.9 17.7 5.5 16.3z"/></svg>