<svg xmlns="http://www.w3.org/2000/svg" viewBox="0 0 48 48"><path fill="#455a64" d="M24 44c-7 0-13.3-3.5-17-9.5l1.7-1.1C12 38.8 17.7 42 24 42c7.4 0 14-4.5 16.7-11.4l1.9.7C39.6 39 32.3 44 24 44zM38.2 13C34.8 8.5 29.6 6 24 6c-5.4 0-10.5 2.4-14 6.6l-1.5-1.3C12.3 6.7 18 4 24 4c6.2 0 12 2.8 15.8 7.7L38.2 13z"/><path fill="#cfd8dc" d="M19,17c0,4.4-3.6,8-8,8s-8-3.6-8-8s3.6-8,8-8S19,12.6,19,17z"/><path fill="#2196f3" d="M19,17H3c0-4.4,3.6-8,8-8S19,12.6,19,17z"/><path fill="#455a64" d="M3,17c0,0.3,0,0.7,0.1,1h15.9c0-0.3,0.1-0.7,0.1-1s0-0.7-0.1-1H3.1C3,16.3,3,16.7,3,17z"/><path fill="#455a64" d="M15,17c0,2.2-1.8,4-4,4s-4-1.8-4-4s1.8-4,4-4S15,14.8,15,17z"/><path fill="#fff" d="M13,17c0,1.1-0.9,2-2,2s-2-0.9-2-2s0.9-2,2-2S13,15.9,13,17z"/><path fill="#cfd8dc" d="M45,30c0,4.4-3.6,8-8,8s-8-3.6-8-8s3.6-8,8-8S45,25.6,45,30z"/><path fill="#ff3d00" d="M45,30H29c0-4.4,3.6-8,8-8S45,25.6,45,30z"/><path fill="#455a64" d="M29,30c0,0.3,0,0.7,0.1,1h15.9c0-0.3,0.1-0.7,0.1-1s0-0.7-0.1-1H29.1C29,29.3,29,29.7,29,30z"/><path fill="#455a64" d="M41,30c0,2.2-1.8,4-4,4s-4-1.8-4-4s1.8-4,4-4S41,27.8,41,30z"/><path fill="#fff" d="M39,30c0,1.1-0.9,2-2,2s-2-0.9-2-2s0.9-2,2-2S39,28.9,39,30z"/><path fill="#ff3d00" d="M43,17l-2-8.5L35.1,14L43,17z"/><path fill="#2196f3" d="M5,31l2,8.5l5.9-5.5L5,31z"/><path fill="#455a64" d="M24,26l-7-2l2,7L24,26z"/><path fill="#455a64" d="M25 33c-.3 0-.5-.1-.7-.3l-5-5c-.4-.4-.4-1 0-1.4s1-.4 1.4 0l5 5c.4.4.4 1 0 1.4C25.5 32.9 25.3 33 25 33zM28 17l2 7-7-2L28 17z"/><path fill="#455a64" d="M27,22c-0.3,0-0.5-0.1-0.7-0.3l-5-5c-0.4-0.4-0.4-1,0-1.4s1-0.4,1.4,0l5,5c0.4,0.4,0.4,1,0,1.4 C27.5,21.9,27.3,22,27,22z"/></svg>