<svg xmlns="http://www.w3.org/2000/svg" viewBox="0 0 48 48"><path fill="#ff3d00" d="M13,23C6.925,23,2,27.925,2,34h22C24,27.925,19.075,23,13,23z"/><path fill="#e4e8ea" d="M13,45c6.075,0,11-4.925,11-11H2C2,40.075,6.925,45,13,45z"/><path fill="#cfd8dc" d="M13,45c6.075,0,11-4.925,11-11c0,0-0.088,9-11,9S2,34,2,34C2,40.075,6.925,45,13,45z"/><path fill="#37474f" d="M2,34c0,0.338,0.021,0.67,0.05,1H23.95c0.03-0.33,0.05-0.662,0.05-1s-0.021-0.67-0.05-1H2.05 C2.021,33.33,2,33.662,2,34z"/><path fill="#fff" d="M13 30A4 4 0 1 0 13 38A4 4 0 1 0 13 30Z"/><path fill="#37474f" d="M13,32c1.103,0,2,0.897,2,2s-0.897,2-2,2s-2-0.897-2-2S11.897,32,13,32 M13,30c-2.209,0-4,1.79-4,4 c0,2.208,1.791,4,4,4c2.21,0,4-1.792,4-4C17,31.79,15.21,30,13,30L13,30z"/><path fill="#ff3d00" d="M35,23c-6.075,0-11,4.925-11,11h22C46,27.925,41.075,23,35,23z"/><path fill="#e4e8ea" d="M35,45c6.075,0,11-4.925,11-11H24C24,40.075,28.925,45,35,45z"/><path fill="#cfd8dc" d="M35,45c6.075,0,11-4.925,11-11c0,0-0.088,9-11,9s-11-9-11-9C24,40.075,28.925,45,35,45z"/><path fill="#37474f" d="M24,34c0,0.338,0.021,0.67,0.05,1H45.95c0.03-0.33,0.05-0.662,0.05-1s-0.021-0.67-0.05-1H24.05 C24.021,33.33,24,33.662,24,34z"/><path fill="#fff" d="M35 30A4 4 0 1 0 35 38A4 4 0 1 0 35 30Z"/><path fill="#37474f" d="M35,32c1.103,0,2,0.897,2,2s-0.897,2-2,2s-2-0.897-2-2S33.897,32,35,32 M35,30c-2.209,0-4,1.79-4,4 c0,2.208,1.791,4,4,4c2.21,0,4-1.792,4-4C39,31.79,37.21,30,35,30L35,30z"/><path fill="#ff3d00" d="M24,3c-6.075,0-11,4.925-11,11h22C35,7.925,30.075,3,24,3z"/><path fill="#e4e8ea" d="M24,25c6.075,0,11-4.925,11-11H13C13,20.075,17.925,25,24,25z"/><path fill="#cfd8dc" d="M24,25c6.075,0,11-4.925,11-11c0,0-0.088,9-11,9s-11-9-11-9C13,20.075,17.925,25,24,25z"/><path fill="#37474f" d="M13,14c0,0.338,0.021,0.67,0.05,1H34.95c0.03-0.33,0.05-0.662,0.05-1s-0.021-0.67-0.05-1H13.05 C13.021,13.33,13,13.662,13,14z"/><path fill="#fff" d="M24 10A4 4 0 1 0 24 18A4 4 0 1 0 24 10Z"/><path fill="#37474f" d="M24,12c1.103,0,2,0.897,2,2s-0.897,2-2,2s-2-0.897-2-2S22.897,12,24,12 M24,10c-2.209,0-4,1.79-4,4 c0,2.208,1.791,4,4,4c2.21,0,4-1.792,4-4C28,11.79,26.21,10,24,10L24,10z"/></svg>